<?xml version="1.0" standalone="no"?>
<!DOCTYPE svg PUBLIC "-//W3C//DTD SVG 20010904//EN"
 "http://www.w3.org/TR/2001/REC-SVG-20010904/DTD/svg10.dtd">
<svg version="1.0" xmlns="http://www.w3.org/2000/svg"
 width="1013.000000pt" height="1013.000000pt" viewBox="0 0 1013.000000 1013.000000"
 preserveAspectRatio="xMidYMid meet">
<metadata>
Created by potrace 1.11, written by Peter Selinger 2001-2013
</metadata>
<g transform="translate(0.000000,1013.000000) scale(0.100000,-0.100000)"
fill="#000000" stroke="none">
<path d="M0 6148 l0 -3983 537 2 c296 1 541 2 546 2 4 1 7 1544 7 3430 l0
3428 3970 0 3970 0 -2 -3966 -3 -3966 -4495 -2 c-2472 -1 -4503 -2 -4512 -2
-17 -1 -18 -34 -18 -546 l0 -545 5060 0 5060 0 0 5065 0 5065 -5060 0 -5060 0
0 -3982z"/>
</g>
</svg>
